<svg xmlns="http://www.w3.org/2000/svg" viewBox="0 0 24 24">
  <path d="M16.26 4.04v16.03c0 .79.99 1.16 1.54.59a5.03 5.03 0 0 0 1.41-3.49V4.04c0-.79-.66-1.44-1.47-1.44-.81 0-1.47.64-1.47 1.44ZM8.2 5.69h4.47A1.2 1.2 0 0 0 13.9 4.5v-.69a1.2 1.2 0 0 0-1.23-1.19H7.33c-2.04 0-2.72 1.18-2.72 2.65V20.5c0 .79.99 1.16 1.54.59a5.03 5.03 0 0 0 1.41-3.49v-3.81c0-.24.2-.43.44-.43h4.66a1.2 1.2 0 0 0 1.23-1.19v-.69a1.2 1.2 0 0 0-1.23-1.19H8a.43.43 0 0 1-.44-.43V6.34c0-.34.29-.62.64-.62Z"/>
    <style>
        path{
            fill: #000;
        }

        @media (prefers-color-scheme: dark) {
            path{
                fill: #fff;
            }
        }
    </style>
</svg>